<svg width="15" height="15" viewBox="0 0 15 15" fill="none" xmlns="http://www.w3.org/2000/svg">
<path d="M11.2924 0.468749C11.3515 0.468749 11.4083 0.444056 11.4501 0.400103C11.492 0.356149 11.5155 0.296535 11.5155 0.234375C11.5155 0.172215 11.492 0.112601 11.4501 0.0686468C11.4083 0.024693 11.3515 0 11.2924 0L3.70746 0C3.64829 0 3.59155 0.024693 3.54972 0.0686468C3.50788 0.112601 3.48438 0.172215 3.48438 0.234375C3.48438 0.296535 3.50788 0.356149 3.54972 0.400103C3.59155 0.444056 3.64829 0.468749 3.70746 0.468749H11.2924Z" fill="#414042"/>
<path d="M11.2925 0.9375H2.8152C1.35042 0.9375 0.667777 1.48406 0.35278 1.9425C-0.0327126 2.505 -0.104992 3.2564 0.149325 4.05843C0.542849 5.29875 1.8653 6.7889 2.67823 7.45077C2.72503 7.48894 2.78434 7.50601 2.84312 7.49823C2.9019 7.49045 2.95533 7.45846 2.99166 7.40929C3.02799 7.36012 3.04424 7.2978 3.03683 7.23605C3.02943 7.17429 2.99897 7.11816 2.95217 7.07999C2.20528 6.47249 0.933249 5.04468 0.573188 3.90984C0.364826 3.255 0.415244 2.65359 0.715071 2.21672C1.0787 1.68656 1.80462 1.40625 2.8152 1.40625H3.48446V5.85937C3.48446 9.01218 6.46176 10.8286 7.06989 11.1666C7.05977 11.1931 7.05433 11.2214 7.05383 11.25V12.4219C7.05383 12.484 7.07733 12.5436 7.11917 12.5876C7.16101 12.6315 7.21775 12.6562 7.27691 12.6562C7.33608 12.6562 7.39282 12.6315 7.43466 12.5876C7.4765 12.5436 7.5 12.484 7.5 12.4219V11.25C7.49924 11.2237 7.49427 11.1977 7.48528 11.1731C8.16078 10.8394 11.5155 9.02343 11.5155 5.85937V1.40625H12.1848C13.1954 1.40625 13.9213 1.68656 14.2849 2.21672C14.5848 2.65359 14.6352 3.255 14.4268 3.91031C14.1457 4.79671 12.7452 6.51327 12.0478 7.08046C12.001 7.11863 11.9706 7.17476 11.9632 7.23652C11.9558 7.29827 11.972 7.36059 12.0083 7.40976C12.0447 7.45893 12.0981 7.49092 12.1569 7.4987C12.2157 7.50648 12.275 7.48941 12.3218 7.45124C13.0945 6.82218 14.5352 5.05171 14.8507 4.0589C15.105 3.25687 15.0327 2.50547 14.6472 1.94297C14.3322 1.48406 13.6496 0.9375 12.1848 0.9375H11.2925ZM11.0694 5.85937C11.0694 8.71546 7.87835 10.455 7.28316 10.7545C6.73526 10.4428 3.93063 8.70749 3.93063 5.85937V1.40625H11.0694V5.85937Z" fill="#414042"/>
<path d="M4.82301 13.1255C4.31393 13.1255 3.93066 13.5286 3.93066 14.063V14.7661C3.93066 14.8283 3.95417 14.8879 3.996 14.9319C4.03784 14.9758 4.09458 15.0005 4.15375 15.0005H10.4001C10.4593 15.0005 10.5161 14.9758 10.5579 14.9319C10.5997 14.8879 10.6232 14.8283 10.6232 14.7661V14.0982C10.6232 13.553 10.2311 13.1255 9.73089 13.1255H4.82301ZM10.1771 14.0982V14.5318H4.37684V14.063C4.37684 13.7869 4.56021 13.5943 4.82301 13.5943H9.73089C9.98521 13.5943 10.1771 13.8108 10.1771 14.0982Z" fill="#414042"/>
</svg>
