<svg width="15" height="15" viewBox="0 0 15 15" fill="none" xmlns="http://www.w3.org/2000/svg">
<path d="M14.9365 12.3047L12.2047 7.23633C12.4968 6.57227 12.6429 5.87891 12.6429 5.15625C12.6429 4.21875 12.4116 3.35449 11.949 2.56348C11.4864 1.77246 10.8607 1.14746 10.0718 0.688477C9.28296 0.229492 8.42592 0 7.50071 0C6.93584 0 6.39289 0.0878906 5.87185 0.263672C5.35081 0.439453 4.8809 0.686035 4.46212 1.00342C4.04334 1.3208 3.67325 1.68945 3.35186 2.10938C3.03047 2.5293 2.78456 3.00293 2.61413 3.53027C2.44369 4.05762 2.35848 4.59961 2.35848 5.15625C2.35848 5.41016 2.37552 5.65918 2.40961 5.90332C2.44369 6.14746 2.49482 6.38184 2.563 6.60645C2.63117 6.83105 2.71395 7.05566 2.81134 7.28027L0.0649271 12.3047C-0.0324636 12.4805 -0.0202897 12.6489 0.101449 12.8101C0.223187 12.9712 0.381447 13.0273 0.576228 12.9785L2.92821 12.4512L3.73169 14.6924C3.79986 14.8779 3.93621 14.9805 4.14073 15H4.16994C4.35499 15 4.49133 14.917 4.57899 14.751L6.9748 10.2832C7.1501 10.3027 7.3254 10.3125 7.50071 10.3125C7.5494 10.3125 7.60053 10.3101 7.6541 10.3052C7.70766 10.3003 7.76123 10.2979 7.81479 10.2979C7.86836 10.2979 7.92436 10.293 7.98279 10.2832L10.4224 14.751C10.5101 14.917 10.6464 15 10.8315 15H10.8753C11.0701 14.9805 11.2016 14.8779 11.2697 14.6924L12.0732 12.4512L14.4252 12.9785C14.5128 13.0078 14.6005 13.0054 14.6881 12.9712C14.7758 12.937 14.844 12.8857 14.8927 12.8174C15.0193 12.6514 15.0339 12.4805 14.9365 12.3047ZM4.2576 13.374L3.67325 11.7334C3.64403 11.665 3.60021 11.604 3.54177 11.5503C3.48334 11.4966 3.4176 11.46 3.34456 11.4404C3.27152 11.4209 3.19604 11.4209 3.11813 11.4404L1.3797 11.8359L3.36647 8.21777C4.04821 9.13574 4.92959 9.76074 6.01063 10.0928L4.2576 13.374ZM3.29343 5.15625C3.29343 3.99414 3.7049 3.00049 4.52786 2.17529C5.35081 1.3501 6.34176 0.9375 7.50071 0.9375C8.26035 0.9375 8.96157 1.12549 9.60435 1.50146C10.2471 1.87744 10.756 2.39014 11.1309 3.03955C11.5059 3.68896 11.6934 4.39453 11.6934 5.15625C11.6934 5.53711 11.6447 5.91064 11.5473 6.27686C11.4499 6.64307 11.3111 6.97998 11.1309 7.2876C10.9508 7.59521 10.7292 7.87842 10.4663 8.13721C10.2033 8.396 9.91843 8.61572 9.61165 8.79639C9.30487 8.97705 8.97131 9.11865 8.61096 9.22119C8.25061 9.32373 7.88053 9.375 7.50071 9.375C6.74106 9.375 6.03741 9.18457 5.38976 8.80371C4.74212 8.42285 4.23081 7.91016 3.85586 7.26562C3.48091 6.62109 3.29343 5.91797 3.29343 5.15625ZM11.8833 11.4404C11.7664 11.4111 11.6569 11.4258 11.5546 11.4844C11.4523 11.543 11.3769 11.626 11.3282 11.7334L10.7438 13.3887L8.94696 10.1074C9.49235 9.94141 9.99634 9.69482 10.4589 9.36768C10.9216 9.04053 11.3184 8.64746 11.6495 8.18848L13.6217 11.8359L11.8833 11.4404Z" fill="#414042"/>
</svg>
