<svg width="20" height="20" viewBox="0 0 20 20" fill="none" xmlns="http://www.w3.org/2000/svg">
<rect width="20" height="20" rx="10" fill="#414042"/>
<path d="M15 8.12693V12.6C15 13.3733 14.3816 14 13.6184 14H6.38158C6.01516 14 5.66375 13.8525 5.40466 13.59C5.14556 13.3274 5 12.9713 5 12.6V8.12693L9.84158 10.8256C9.94026 10.8805 10.06 10.8805 10.1584 10.8256L15 8.12667V8.12693ZM13.6184 6C13.9791 6.00003 14.3254 6.14297 14.5835 6.39829C14.8415 6.6536 14.9908 7.00104 14.9995 7.3664L10 10.1531L5.00053 7.36613L5.00105 7.34213C5.01579 6.98114 5.16769 6.63989 5.42498 6.38975C5.68227 6.13962 6.02503 5.99997 6.38158 6H13.6184Z" fill="white"/>
</svg>
