<svg width="20" height="20" viewBox="0 0 20 20" fill="none" xmlns="http://www.w3.org/2000/svg">
<path d="M10 0C4.48385 0 0 4.48385 0 10C0 15.5161 4.48385 20 10 20C15.5162 20 20 15.5161 20 10C19.9896 4.48385 15.5057 0 10 0ZM15.2972 7.15331C15.2972 7.1846 15.2763 7.24713 15.2242 7.32013C14.9739 7.65381 14.6924 7.9458 14.3587 8.19606C14.3066 8.23777 14.2336 8.26901 14.2336 8.342C14.2336 10.0834 13.7852 11.8353 12.513 13.0866C10.8968 14.7028 8.45673 15.1303 6.29823 14.5359C5.89156 14.4212 5.48488 14.2544 5.09906 14.0563C4.97393 13.9937 4.8488 13.9103 4.72367 13.8373C4.68196 13.806 4.6611 13.7852 4.69239 13.7748C4.72367 13.7539 4.74452 13.7539 4.83837 13.7748C5.44317 13.8373 6.05839 13.7435 6.63191 13.5454C6.94473 13.4307 7.61209 13.2116 7.82064 12.9093C7.82064 12.8988 7.82065 12.8989 7.83108 12.8989C7.75809 12.878 7.67466 12.878 7.59124 12.8571C7.00729 12.6903 6.22524 12.3983 5.86028 11.4181C5.83942 11.366 5.86028 11.3243 5.92284 11.3451C6.41294 11.3868 6.57978 11.3556 6.75705 11.3139C6.6632 11.293 6.56935 11.2617 6.4755 11.2304C5.73515 10.9489 5.20333 10.2294 5.09906 9.45775C5.08863 9.3639 5.07821 9.28049 5.08864 9.2075C5.08864 9.15536 5.11993 9.13452 5.16164 9.15538C5.54746 9.3535 5.97498 9.39519 6.00626 9.39519C5.91242 9.3222 5.82899 9.22837 5.73514 9.15538C5.09906 8.55058 4.8488 7.30971 5.35975 6.5485C5.40146 6.48594 5.42231 6.48593 5.47445 6.53806C6.65276 7.87278 8.09177 8.49844 9.83316 8.75913C9.8853 8.76955 9.8853 8.75914 9.8853 8.707C9.83317 8.4046 9.83315 8.10221 9.90615 7.79981C9.97914 7.48699 10.1356 7.18458 10.3337 6.94475C10.5318 6.69449 10.7821 6.49636 11.0636 6.35038C11.3451 6.20439 11.6476 6.12098 11.9499 6.10013C12.2732 6.07927 12.5965 6.13137 12.8989 6.2565C13.1178 6.33992 13.316 6.4651 13.5141 6.63194C13.5558 6.66322 13.5871 6.69449 13.6288 6.74663C13.6496 6.76748 13.6809 6.77793 13.7122 6.7675C14.1502 6.66323 14.5673 6.49635 14.9739 6.27738C14.9948 6.26695 15.0156 6.26695 15.0261 6.27738C15.0469 6.2878 15.0469 6.31907 15.0365 6.3295C14.9635 6.55891 14.8384 6.77793 14.682 6.96563C14.5777 7.10118 14.3274 7.40353 14.1606 7.43481C14.5255 7.38268 14.9009 7.27842 15.2451 7.13244C15.2763 7.12201 15.2972 7.1116 15.2972 7.15331Z" fill="#414042"/>
</svg>
