<svg width="20" height="20" viewBox="0 0 20 20" fill="none" xmlns="http://www.w3.org/2000/svg">
<path d="M10 0C4.48384 0 0 4.48387 0 10C0 15.5162 4.48384 20 10 20C15.5162 20 20 15.5162 20 10C19.9896 4.48387 15.5057 0 10 0ZM12.4192 6.9239C12.4192 6.99689 12.3671 7.05946 12.2836 7.05946H11.2409C10.9802 7.05946 10.7821 7.26802 10.7821 7.52871V8.61315H12.2628C12.3357 8.61315 12.3983 8.67573 12.3879 8.75915L12.2628 10.3024C12.2523 10.365 12.2002 10.4171 12.1272 10.4171H10.7821V15.5266C10.7821 15.5892 10.7299 15.6517 10.6465 15.6517H8.77996C8.70697 15.6517 8.6444 15.5996 8.6444 15.5266V10.4171H7.70593C7.64336 10.4171 7.5808 10.365 7.5808 10.2815V8.73828C7.5808 8.67571 7.64336 8.61315 7.70593 8.61315H8.6444V7.13246C8.6444 6.08971 9.48905 5.25552 10.5214 5.25552H12.2836C12.3566 5.25552 12.4192 5.30765 12.4192 5.38064V6.9239Z" fill="#414042"/>
</svg>
