<svg width="21" height="15" viewBox="0 0 21 15" fill="none" xmlns="http://www.w3.org/2000/svg">
<path d="M16.972 8.36785H13.6573C13.5594 8.36785 13.4824 8.28863 13.4824 8.18782C13.4824 8.087 13.5594 8.00779 13.6573 8.00779H16.972C18.9999 8.00779 20.6503 6.30832 20.6503 4.21997V1.65634H3.13981V4.21997C3.13981 4.76726 3.2517 5.29294 3.46848 5.78982C3.51044 5.88344 3.46847 5.98425 3.38455 6.02745C3.29364 6.07066 3.19575 6.02746 3.15379 5.94104C2.91603 5.40095 2.79016 4.82485 2.79016 4.22715V1.4835C2.79016 1.38268 2.86708 1.30347 2.96499 1.30347H20.8251C20.923 1.30347 20.9999 1.38268 20.9999 1.4835V4.22715C20.9929 6.50994 19.1888 8.36785 16.972 8.36785Z" fill="#414042"/>
<path d="M10.1328 8.36767H6.81815C6.65032 8.36767 6.48249 8.36048 6.31465 8.33888C6.21675 8.32447 6.15381 8.23806 6.16081 8.13724C6.17479 8.03643 6.2657 7.97161 6.35661 7.97882C6.50346 8.00042 6.65733 8.00761 6.81117 8.00761H10.1258C10.2238 8.00761 10.3007 8.08682 10.3007 8.18764C10.3007 8.28845 10.2308 8.36767 10.1328 8.36767Z" fill="#414042"/>
<path d="M20.4825 13.3296H4.81814C4.72023 13.3296 4.64331 13.2504 4.64331 13.1495C4.64331 13.0487 4.72023 12.9695 4.81814 12.9695H20.3076V5.84751C20.3076 5.74669 20.3846 5.66748 20.4825 5.66748C20.5804 5.66748 20.6573 5.74669 20.6573 5.84751V13.1495C20.6573 13.2504 20.5804 13.3296 20.4825 13.3296Z" fill="#414042"/>
<path d="M13.1467 9.97379H10.6362C10.2586 9.97379 9.95093 9.65694 9.95093 9.27528V8.12308C9.95093 7.73421 10.2586 7.42456 10.6362 7.42456H13.1467C13.5244 7.42456 13.832 7.74141 13.832 8.12308V9.27528C13.832 9.65694 13.5244 9.97379 13.1467 9.97379ZM10.6362 7.77743C10.4544 7.77743 10.3006 7.92866 10.3006 8.11589V9.26807C10.3006 9.4553 10.4474 9.60652 10.6362 9.60652H13.1467C13.3286 9.60652 13.4824 9.4553 13.4824 9.26807V8.11589C13.4824 7.92866 13.3355 7.77743 13.1467 7.77743H10.6362Z" fill="#414042"/>
<path d="M13.3847 1.65629H10.4057C10.3078 1.65629 10.2308 1.57708 10.2308 1.47626V0.849737C10.2308 0.381659 10.6015 0 11.056 0H12.7413C13.1959 0 13.5665 0.381659 13.5665 0.849737V1.47626C13.5595 1.57708 13.4756 1.65629 13.3847 1.65629ZM10.5805 1.29623H13.2099V0.849737C13.2099 0.583292 13.0001 0.36006 12.7343 0.36006H11.049C10.7903 0.36006 10.5735 0.576091 10.5735 0.849737V1.29623H10.5805Z" fill="#414042"/>
<path d="M4.81819 13.6104H1.82518C1.72728 13.6104 1.65036 13.5312 1.65036 13.4304V12.055C0.629381 11.4429 0 10.3195 0 9.10247C0 7.21576 1.48951 5.6819 3.32168 5.6819C5.15384 5.6819 6.64335 7.21576 6.64335 9.10247C6.64335 10.3195 6.01399 11.4429 4.99301 12.055V13.4304C4.99301 13.5312 4.91609 13.6104 4.81819 13.6104ZM2.00001 13.2504H4.64336V11.9469C4.64336 11.8821 4.67833 11.8173 4.73428 11.7885C5.69232 11.2484 6.2937 10.2187 6.2937 9.09526C6.2937 7.41018 4.95804 6.03475 3.32168 6.03475C1.68531 6.03475 0.34965 7.41018 0.34965 9.09526C0.34965 10.2187 0.944063 11.2484 1.9091 11.7885C1.96504 11.8173 2.00001 11.8821 2.00001 11.9469V13.2504Z" fill="#414042"/>
<path d="M3.32173 14.9999C2.66439 14.9999 2.13293 14.4527 2.13293 13.7758C2.13293 13.6749 2.20986 13.5957 2.30776 13.5957C2.40566 13.5957 2.48258 13.6749 2.48258 13.7758C2.48258 14.251 2.86019 14.6399 3.32173 14.6399C3.78327 14.6399 4.1609 14.251 4.1609 13.7758C4.1609 13.6749 4.23782 13.5957 4.33573 13.5957C4.43363 13.5957 4.51055 13.6749 4.51055 13.7758C4.51754 14.4455 3.97907 14.9999 3.32173 14.9999Z" fill="#414042"/>
<path d="M3.32168 12.7466C3.22377 12.7466 3.14685 12.6673 3.14685 12.5665V9.88047C3.14685 9.77965 3.22377 9.70044 3.32168 9.70044C3.41958 9.70044 3.4965 9.77965 3.4965 9.88047V12.5665C3.4965 12.6601 3.41958 12.7466 3.32168 12.7466Z" fill="#414042"/>
<path d="M3.58043 10.06H3.06996C2.5315 10.06 2.09094 9.60635 2.09094 9.05186C2.09094 8.95104 2.16787 8.87183 2.26577 8.87183C2.36367 8.87183 2.44059 8.95104 2.44059 9.05186C2.44059 9.40472 2.72031 9.69996 3.06996 9.69996H3.58043C3.92309 9.69996 4.20982 9.41192 4.20982 9.05186C4.20982 8.95104 4.28674 8.87183 4.38465 8.87183C4.48255 8.87183 4.55947 8.95104 4.55947 9.05186C4.55248 9.60635 4.1189 10.06 3.58043 10.06Z" fill="#414042"/>
</svg>
